HIERARCHY
ROOT Hips
{
  OFFSET -2.9740628571428576 95.22824285714285 -3.405862857142857
  CHANNELS 6 Xposition Yposition Zposition Zrotation Xrotation Yrotation
  JOINT LeftUpLeg
  {
    OFFSET 8.64259 1.9539799999999998 -2.3883499999999995
    CHANNELS 3 Zrotation Xrotation Yrotation
    JOINT LeftLeg
    {
      OFFSET 43.770199999999996 0.0 0.0
      CHANNELS 3 Zrotation Xrotation Yrotation
      JOINT LeftFoot
      {
        OFFSET 40.62380000000001 0.0 0.0
        CHANNELS 3 Zrotation Xrotation Yrotation
        JOINT LeftToeBase
        {
          OFFSET 12.724199999999998 0.0 0.0
          CHANNELS 3 Zrotation Xrotation Yrotation
          End Site
          {
            OFFSET 0.0 0.0 0.0
          }
        }
      }
    }
  }
  JOINT RightUpLeg
  {
    OFFSET -8.2249 1.9539799999999998 -2.59336
    CHANNELS 3 Zrotation Xrotation Yrotation
    JOINT RightLeg
    {
      OFFSET 43.56529999999999 0.0 0.0
      CHANNELS 3 Zrotation Xrotation Yrotation
      JOINT RightFoot
      {
        OFFSET 40.62380000000001 0.0 0.0
        CHANNELS 3 Zrotation Xrotation Yrotation
        JOINT RightToeBase
        {
          OFFSET 12.724199999999998 0.0 0.0
          CHANNELS 3 Zrotation Xrotation Yrotation
          End Site
          {
            OFFSET 0.0 0.0 0.0
          }
        }
      }
    }
  }
  JOINT Spine
  {
    OFFSET 0.16583 0.8771399999999999 6.61349
    CHANNELS 3 Zrotation Xrotation Yrotation
    JOINT Spine1
    {
      OFFSET 7.389628571428571 2e-05 0.0
      CHANNELS 3 Zrotation Xrotation Yrotation
      JOINT Spine2
      {
        OFFSET 11.944500000000001 1e-05 0.0
        CHANNELS 3 Zrotation Xrotation Yrotation
        JOINT Spine3
        {
          OFFSET 14.725400000000004 4e-05 0.0
          CHANNELS 3 Zrotation Xrotation Yrotation
          JOINT Spine4
          {
            OFFSET 10.9679 0.0 0.0
            CHANNELS 3 Zrotation Xrotation Yrotation
            JOINT RightShoulder
            {
              OFFSET 2.46616 -1.6653 3.69651
              CHANNELS 3 Zrotation Xrotation Yrotation
              JOINT RightArm
              {
                OFFSET 13.001199999999999 0.0 0.0
                CHANNELS 3 Zrotation Xrotation Yrotation
                JOINT RightForeArm
                {
                  OFFSET 28.784799999999997 2e-05 0.0
                  CHANNELS 3 Zrotation Xrotation Yrotation
                  JOINT RightHand
                  {
                    OFFSET 26.568800000000003 2e-05 0.0
                    CHANNELS 3 Zrotation Xrotation Yrotation
                    JOINT RightHandMiddle1
                    {
                      OFFSET 8.03675 -0.8865800000000001 0.7278700000000001
                      CHANNELS 3 Zrotation Xrotation Yrotation
                      JOINT RightHandMiddle2
                      {
                        OFFSET 2.7883299999999993 0.0 0.0
                        CHANNELS 3 Zrotation Xrotation Yrotation
                        JOINT RightHandMiddle3
                        {
                          OFFSET 2.4115500000000005 0.0 0.0
                          CHANNELS 3 Zrotation Xrotation Yrotation
                          End Site
                          {
                            OFFSET 0.0 0.0 0.0
                          }
                        }
                      }
                    }
                    JOINT RightHandRing1
                    {
                      OFFSET 7.979660000000002 -0.8867700000000002 -1.00486
                      CHANNELS 3 Zrotation Xrotation Yrotation
                      JOINT RightHandRing2
                      {
                        OFFSET 2.8636799999999996 0.0 0.0
                        CHANNELS 3 Zrotation Xrotation Yrotation
                        JOINT RightHandRing3
                        {
                          OFFSET 2.11079 0.0 0.0
                          CHANNELS 3 Zrotation Xrotation Yrotation
                          End Site
                          {
                            OFFSET 0.0 0.0 0.0
                          }
                        }
                      }
                    }
                    JOINT RightHandPinky1
                    {
                      OFFSET 8.03707 -0.8875299999999999 -2.6069600000000004
                      CHANNELS 3 Zrotation Xrotation Yrotation
                      JOINT RightHandPinky2
                      {
                        OFFSET 1.8462757142857142 0.0 0.0
                        CHANNELS 3 Zrotation Xrotation Yrotation
                        JOINT RightHandPinky3
                        {
                          OFFSET 1.8843400000000001 0.0 0.0
                          CHANNELS 3 Zrotation Xrotation Yrotation
                          End Site
                          {
                            OFFSET 0.0 0.0 0.0
                          }
                        }
                      }
                    }
                    JOINT RightHandIndex1
                    {
                      OFFSET 7.92262 -0.8855000000000002 2.31175
                      CHANNELS 3 Zrotation Xrotation Yrotation
                      JOINT RightHandIndex2
                      {
                        OFFSET 2.63761 0.0 0.0
                        CHANNELS 3 Zrotation Xrotation Yrotation
                        JOINT RightHandIndex3
                        {
                          OFFSET 2.16656 0.0 0.0
                          CHANNELS 3 Zrotation Xrotation Yrotation
                          End Site
                          {
                            OFFSET 0.0 0.0 0.0
                          }
                        }
                      }
                    }
                    JOINT RightHandThumb1
                    {
                      OFFSET 3.4769 0.059800000000000006 2.8878899999999996
                      CHANNELS 3 Zrotation Xrotation Yrotation
                      JOINT RightHandThumb2
                      {
                        OFFSET 2.7768599999999997 0.00010000000000000002 -2e-05
                        CHANNELS 3 Zrotation Xrotation Yrotation
                        JOINT RightHandThumb3
                        {
                          OFFSET 2.420578571428571 -9e-05 0.0
                          CHANNELS 3 Zrotation Xrotation Yrotation
                          End Site
                          {
                            OFFSET 0.0 0.0 0.0
                          }
                        }
                      }
                    }
                  }
                }
              }
            }
            JOINT LeftShoulder
            {
              OFFSET 2.3803400000000003 -1.29275 -3.7523014285714282
              CHANNELS 3 Zrotation Xrotation Yrotation
              JOINT LeftArm
              {
                OFFSET 16.3182 5.9999999999999995e-05 0.0
                CHANNELS 3 Zrotation Xrotation Yrotation
                JOINT LeftForeArm
                {
                  OFFSET 27.090100000000003 0.0 0.0
                  CHANNELS 3 Zrotation Xrotation Yrotation
                  JOINT LeftHand
                  {
                    OFFSET 24.545099999999998 2e-05 0.0
                    CHANNELS 3 Zrotation Xrotation Yrotation
                    JOINT LeftHandMiddle1
                    {
                      OFFSET 9.218019999999997 0.66582 0.5455300000000002
                      CHANNELS 3 Zrotation Xrotation Yrotation
                      JOINT LeftHandMiddle2
                      {
                        OFFSET 2.66255 0.0 0.0
                        CHANNELS 3 Zrotation Xrotation Yrotation
                        JOINT LeftHandMiddle3
                        {
                          OFFSET 2.2804 0.0 0.0
                          CHANNELS 3 Zrotation Xrotation Yrotation
                          End Site
                          {
                            OFFSET 0.0 0.0 0.0
                          }
                        }
                      }
                    }
                    JOINT LeftHandRing1
                    {
                      OFFSET 9.247749999999998 0.66519 -1.1266999999999998
                      CHANNELS 3 Zrotation Xrotation Yrotation
                      JOINT LeftHandRing2
                      {
                        OFFSET 2.4704099999999998 0.0 -2e-05
                        CHANNELS 3 Zrotation Xrotation Yrotation
                        JOINT LeftHandRing3
                        {
                          OFFSET 2.2054000000000005 0.0 0.0
                          CHANNELS 3 Zrotation Xrotation Yrotation
                          End Site
                          {
                            OFFSET 0.0 0.0 0.0
                          }
                        }
                      }
                    }
                    JOINT LeftHandPinky1
                    {
                      OFFSET 9.35383857142857 0.66301 -2.7233200000000006
                      CHANNELS 3 Zrotation Xrotation Yrotation
                      JOINT LeftHandPinky2
                      {
                        OFFSET 1.63407 0.0 0.0
                        CHANNELS 3 Zrotation Xrotation Yrotation
                        JOINT LeftHandPinky3
                        {
                          OFFSET 1.71176 0.0 0.0
                          CHANNELS 3 Zrotation Xrotation Yrotation
                          End Site
                          {
                            OFFSET 0.0 0.0 0.0
                          }
                        }
                      }
                    }
                    JOINT LeftHandIndex1
                    {
                      OFFSET 8.731608571428572 0.6758999999999998 2.0680099999999997
                      CHANNELS 3 Zrotation Xrotation Yrotation
                      JOINT LeftHandIndex2
                      {
                        OFFSET 2.6668899999999995 0.0 0.0
                        CHANNELS 3 Zrotation Xrotation Yrotation
                        JOINT LeftHandIndex3
                        {
                          OFFSET 2.12946 0.0 2e-05
                          CHANNELS 3 Zrotation Xrotation Yrotation
                          End Site
                          {
                            OFFSET 0.0 0.0 0.0
                          }
                        }
                      }
                    }
                    JOINT LeftHandThumb1
                    {
                      OFFSET 4.967354285714285 -0.62265 3.3958599999999994
                      CHANNELS 3 Zrotation Xrotation Yrotation
                      JOINT LeftHandThumb2
                      {
                        OFFSET 2.15386 2e-05 0.0
                        CHANNELS 3 Zrotation Xrotation Yrotation
                        JOINT LeftHandThumb3
                        {
                          OFFSET 2.1951099999999997 -2.9999999999999997e-05 2e-05
                          CHANNELS 3 Zrotation Xrotation Yrotation
                          End Site
                          {
                            OFFSET 0.0 0.0 0.0
                          }
                        }
                      }
                    }
                  }
                }
              }
            }
            JOINT Neck
            {
              OFFSET 5.0226 -0.026629999999999994 0.0
              CHANNELS 3 Zrotation Xrotation Yrotation
              JOINT Head
              {
                OFFSET 6.693637142857143 2.9999999999999997e-05 0.0
                CHANNELS 3 Zrotation Xrotation Yrotation
                End Site
                {
                  OFFSET 0.0 0.0 0.0
                }
              }
            }
          }
        }
      }
    }
  }
}
MOTION
Frames: 4
Frame Time: 0.03333333
2.9387299999999996 97.9354 -21.0726 165.604 -89.9929 165.668 -171.753 2.7911199999999994 92.069 -8.89462 8.070889999999999 1.46458 63.349 1.3592000000000002 0.698291 28.7808 6.44136e-06 2.6783499999999995e-06 179.141 1.900929999999999 88.5892 -7.586019999999998 -0.7560370000000001 -0.05240410000000001 62.7276 -1.2459799999999999 -0.630941 28.7808 1.4036400000000002e-05 2.62948e-05 0.004575190000000007 6.3407599999999995 -90.0636 14.1924 -0.0010080100000000036 -0.0002962199999999582 2.52148 -0.00101958000000002 -0.00025807899999996664 -20.0137 -0.0008753379999999478 -0.0005857919999999739 -0.0010324000000001554 -0.0008735229999999872 -0.0005878289999999842 100.834 -18.8382 -85.4498 -7.454160000000002 37.3119 -7.777139999999999 -0.7535790000000002 0.07298159999999992 -3.939329999999998 -5.37983 -0.3200050000000001 -0.016239699999999857 -89.4043 88.9709 89.0941 -0.060488099999999996 1.0247499999999994e-06 -1.1664600000000029e-07 -0.0639209 6.950360000000028e-08 -4.9057399999999996e-08 -89.3948 88.9811 89.0846 -1.1574200000000001 -6.549480000000001e-06 -3.03439e-08 2.576 3.1965199999999995e-06 1.70712e-08 -88.8572 89.3579 88.54700000000001 -1.14578 -3.3858600000000002e-06 -4.928180000004123e-09 1.1457700000000002 3.3826e-06 1.63701e-08 -89.4226 88.9487 89.1123 0.409287 1.7422999999999994e-06 0.00056813 -0.636601 3.1342799999999992e-06 2.0583900000000002e-07 104.36399999999999 40.5023 -88.8246 -7.66903 0.186178 -1.3504399999999999 -11.2634 -4.94005e-07 6.8402e-05 -79.0149 -21.621499999999997 94.2545 19.4407 -38.0843 -2.438880000000001 0.035675000000000345 37.935 -5.192630000000001 0.1819679999999999 0.03740309999999991 0.7463099999999994 -91.1873 -87.8289 -89.9988 3.4088800000000004 4.0885e-06 0.00341191 -0.9548610000000001 -6.8985300000000005e-06 -3.2220799999999997e-07 -91.1878 -89.4015 -89.9993 2.85636 8.73461e-06 0.00262673 -3.1684400000000004 -8.60877e-06 -4.4652100000000003e-07 88.8099 -89.7171 89.9985 2.54481 2.6347100000000002e-06 0.00270705 -2.54482 4.99203e-06 2.0506599999999996e-07 -91.1883 -86.1973 -89.9998 6.1310400000000005 8.43275e-06 0.00666342 -2.04542 -1.9e-05 -6.132220000000001e-07 -101.949 -40.7242 -90.0694 10.0172 2.08158e-06 2.77e-06 -2.6697599999999997 -4.304980000000001e-06 -4.1111e-06 1.74803 -0.0006294099999999414 -0.0001482990000001294 -7.403239999999999 0.0015373899999999718 0.002077869999999999
2.9026999999999994 97.94829999999999 -21.0899 -177.42700000000002 -89.8876 -177.408 -171.718 2.9015200000000014 92.061 -9.301590000000001 8.001610000000001 1.42452 63.3628 1.37539 0.698492 28.7808 6.44136e-06 2.6783499999999995e-06 179.157 1.8874400000000016 88.5578 -7.774149999999999 -0.7787680000000003 -0.05240429999999996 62.8591 -1.2214700000000005 -0.6201729999999999 28.7808 1.4036400000000002e-05 2.62948e-05 -0.00673412000000001 6.3487 -90.0134 14.1765 -0.016607899999999953 -0.005189189999999955 2.50555 -0.016821499999999934 -0.004463380000000017 -20.0296 -0.01428790000000002 -0.009945629999999983 -0.016959599999999853 -0.014275499999999997 -0.009936359999999977 100.82700000000001 -18.9073 -85.4444 -7.48405 37.3155 -7.763389999999999 -0.7414679999999998 0.07298299999999996 -3.9233100000000007 -5.37983 -0.3200050000000001 -0.016239699999999857 -89.4043 88.9709 89.0941 -0.060488099999999996 1.0247499999999994e-06 -1.1664600000000029e-07 -0.0639209 6.950360000000028e-08 -4.9057399999999996e-08 -89.3948 88.9811 89.0846 -1.1574200000000001 -6.549480000000001e-06 -3.03439e-08 2.576 3.1965199999999995e-06 1.70712e-08 -88.8572 89.3579 88.54700000000001 -1.14578 -3.3858600000000002e-06 -4.928180000004123e-09 1.1457700000000002 3.3826e-06 1.63701e-08 -89.4226 88.9487 89.1123 0.409287 1.7422999999999994e-06 0.00056813 -0.636601 3.1342799999999992e-06 2.0583900000000002e-07 104.36399999999999 40.5023 -88.8246 -7.66903 0.186178 -1.3504399999999999 -11.2634 -4.94005e-07 6.8402e-05 -79.04 -21.5997 94.2126 19.452 -38.0964 -2.3851000000000013 0.12806500000000032 37.9955 -5.315539999999999 0.13879800000000042 0.0374007999999999 0.9831680000000009 -91.1873 -87.8289 -89.9988 3.4088800000000004 4.0885e-06 0.00341191 -0.9548610000000001 -6.8985300000000005e-06 -3.2220799999999997e-07 -91.1878 -89.4015 -89.9993 2.85636 8.73461e-06 0.00262673 -3.1684400000000004 -8.60877e-06 -4.4652100000000003e-07 88.8099 -89.7171 89.9985 2.54481 2.6347100000000002e-06 0.00270705 -2.54482 4.99203e-06 2.0506599999999996e-07 -91.1883 -86.1973 -89.9998 6.1310400000000005 8.43275e-06 0.00666342 -2.04542 -1.9e-05 -6.132220000000001e-07 -101.949 -40.7242 -90.0694 10.0172 2.08158e-06 2.77e-06 -2.6697599999999997 -4.304980000000001e-06 -4.1111e-06 1.6614400000000007 -0.0006294099999999414 0.001088170000000055 -7.28653 0.0012779999999998903 0.0315251
2.86815 97.9305 -21.114900000000002 -165.59099999999998 -89.8383 -165.59900000000002 -171.697 3.0103100000000005 92.0653 -9.58792 7.93981 1.39014 63.4559 1.38483 0.70017 28.7808 6.44136e-06 2.6783499999999995e-06 179.17700000000002 2.4071299999999987 88.5541 -8.892240000000001 -0.8317180000000004 -0.052405000000000035 63.3486 -1.32145 -0.6861470000000001 28.7808 1.4036400000000002e-05 2.62948e-05 -0.011448999999999987 6.35243 -89.9915 14.169 -0.02385390000000004 -0.01169869999999995 2.4980599999999997 -0.024342599999999992 -0.010642099999999988 -20.0371 -0.019239600000000023 -0.01831949999999999 -0.024448700000000212 -0.01923129999999995 -0.0183199 100.831 -18.893 -85.4325 -7.413070000000001 37.2955 -7.76732 -0.7539159999999994 0.07298369999999998 -3.9151799999999994 -5.37983 -0.3200050000000001 -0.016239699999999857 -89.4043 88.9709 89.0941 -0.060488099999999996 1.0247499999999994e-06 -1.1664600000000029e-07 -0.0639209 6.950360000000028e-08 -4.9057399999999996e-08 -89.3948 88.9811 89.0846 -1.1574200000000001 -6.549480000000001e-06 -3.03439e-08 2.576 3.1965199999999995e-06 1.70712e-08 -88.8572 89.3579 88.54700000000001 -1.14578 -3.3858600000000002e-06 -4.928180000004123e-09 1.1457700000000002 3.3826e-06 1.63701e-08 -89.4226 88.9487 89.1123 0.409287 1.7422999999999994e-06 0.00056813 -0.636601 3.1342799999999992e-06 2.0583900000000002e-07 104.36399999999999 40.5023 -88.8246 -7.66903 0.186178 -1.3504399999999999 -11.2634 -4.94005e-07 6.8402e-05 -78.9937 -21.6761 94.322 19.4067 -38.2707 -2.6012400000000007 0.2378000000000009 38.21110000000001 -5.278120000000001 0.28664400000000034 0.037402099999999994 0.8565780000000007 -91.1873 -87.8289 -89.9988 3.4088800000000004 4.0885e-06 0.00341191 -0.9548610000000001 -6.8985300000000005e-06 -3.2220799999999997e-07 -91.1878 -89.4015 -89.9993 2.85636 8.73461e-06 0.00262673 -3.1684400000000004 -8.60877e-06 -4.4652100000000003e-07 88.8099 -89.7171 89.9985 2.54481 2.6347100000000002e-06 0.00270705 -2.54482 4.99203e-06 2.0506599999999996e-07 -91.1883 -86.1973 -89.9998 6.1310400000000005 8.43275e-06 0.00666342 -2.04542 -1.9e-05 -6.132220000000001e-07 -101.949 -40.7242 -90.0694 10.0172 2.08158e-06 2.77e-06 -2.6697599999999997 -4.304980000000001e-06 -4.1111e-06 1.6614900000000006 -0.0010779700000000947 0.05900559999999988 -7.27792 -0.004178940000000075 0.0029526299999999995
2.8386400000000016 97.9243 -21.1406 -164.53099999999998 -89.8357 -164.549 -171.717 2.896329999999999 92.0622 -9.32506 7.988519999999999 1.4375599999999997 63.3763 1.3435700000000002 0.680455 28.7808 6.44136e-06 2.6783499999999995e-06 179.158 2.1200599999999987 88.55 -8.262349999999998 -0.897151 -0.052405900000000005 63.0795 -1.2507100000000002 -0.6409910000000005 28.7808 1.4036400000000002e-05 2.62948e-05 -0.013719499999999996 6.3594800000000005 -90.014 14.1549 -0.032594500000000026 -0.0152003 2.48393 -0.033229799999999976 -0.013759500000000036 -20.0512 -0.026519599999999977 -0.024292399999999992 -0.03857430000000006 -0.02651519999999996 -0.0242946 100.90299999999999 -18.7778 -85.2733 -7.144789999999997 37.2592 -7.94669 -0.781498 0.0729843 -3.9077699999999993 -5.37983 -0.3200050000000001 -0.016239699999999857 -89.4043 88.9709 89.0941 -0.060488099999999996 1.0247499999999994e-06 -1.1664600000000029e-07 -0.0639209 6.950360000000028e-08 -4.9057399999999996e-08 -89.3948 88.9811 89.0846 -1.1574200000000001 -6.549480000000001e-06 -3.03439e-08 2.576 3.1965199999999995e-06 1.70712e-08 -88.8572 89.3579 88.54700000000001 -1.14578 -3.3858600000000002e-06 -4.928180000004123e-09 1.1457700000000002 3.3826e-06 1.63701e-08 -89.4226 88.9487 89.1123 0.409287 1.7422999999999994e-06 0.00056813 -0.636601 3.1342799999999992e-06 2.0583900000000002e-07 104.36399999999999 40.5023 -88.8246 -7.66903 0.186178 -1.3504399999999999 -11.2634 -4.94005e-07 6.8402e-05 -78.9607 -21.7368 94.389 19.3985 -38.3121 -2.7246999999999986 0.27444000000000024 38.3125 -5.344479999999997 0.3277320000000006 0.03673639999999989 1.0458700000000007 -91.1873 -87.8289 -89.9988 3.4088800000000004 4.0885e-06 0.00341191 -0.9548610000000001 -6.8985300000000005e-06 -3.2220799999999997e-07 -91.1878 -89.4015 -89.9993 2.85636 8.73461e-06 0.00262673 -3.1684400000000004 -8.60877e-06 -4.4652100000000003e-07 88.8099 -89.7171 89.9985 2.54481 2.6347100000000002e-06 0.00270705 -2.54482 4.99203e-06 2.0506599999999996e-07 -91.1883 -86.1973 -89.9998 6.1310400000000005 8.43275e-06 0.00666342 -2.04542 -1.9e-05 -6.132220000000001e-07 -101.949 -40.7242 -90.0694 10.0172 2.08158e-06 2.77e-06 -2.6697599999999997 -4.304980000000001e-06 -4.1111e-06 1.91859 -0.00828435999999999 0.14176799999999945 -7.51055 -0.02674449999999995 -0.0292864
